HIERARCHY
ROOT Hips
{
	OFFSET 0.000000 0.000000 0.000000
	CHANNELS 6 Xposition Yposition Zposition Zrotation Yrotation Xrotation 
	JOINT Spine1
	{
		OFFSET -0.013727 5.003763 -0.053727
		CHANNELS 3 Zrotation Yrotation Xrotation
		JOINT Spine2
		{
			OFFSET -0.000000 7.125302 -0.029825
			CHANNELS 3 Zrotation Yrotation Xrotation
			JOINT Chest
			{
				OFFSET -0.000001 7.550063 -0.815971
				CHANNELS 3 Zrotation Yrotation Xrotation
				JOINT Neck1
				{
					OFFSET -0.181676 26.311296 -0.553348
					CHANNELS 3 Zrotation Yrotation Xrotation
					JOINT Neck2
					{
						OFFSET -0.000003 7.709400 2.302585
						CHANNELS 3 Zrotation Yrotation Xrotation
						JOINT Head
						{
							OFFSET -0.000004 6.128913 1.953708
							CHANNELS 3 Zrotation Yrotation Xrotation
							JOINT HeadEnd
							{
								OFFSET 0.003598 16.065401 -1.835379
								CHANNELS 3 Zrotation Yrotation Xrotation
								End Site
								{
									OFFSET 0.000000 0.000000 0.000000
								}
							}
							JOINT Jaw
							{
								OFFSET 0.002637 0.475592 3.094941
								CHANNELS 3 Zrotation Yrotation Xrotation
								End Site
								{
									OFFSET 0.000000 0.000000 0.000000
								}
							}
							JOINT LeftEye
							{
								OFFSET 3.206381 5.380206 7.586883
								CHANNELS 3 Zrotation Yrotation Xrotation
								End Site
								{
									OFFSET 0.000000 0.000000 0.000000
								}
							}
							JOINT RightEye
							{
								OFFSET -3.222440 5.361867 7.558233
								CHANNELS 3 Zrotation Yrotation Xrotation
								End Site
								{
									OFFSET 0.000000 0.000000 0.000000
								}
							}
						}
					}
				}
				JOINT LeftShoulder
				{
					OFFSET 1.621652 23.237164 5.113413
					CHANNELS 3 Zrotation Yrotation Xrotation
					JOINT LeftArm
					{
						OFFSET 14.919845 -0.000001 -5.502326
						CHANNELS 3 Zrotation Yrotation Xrotation
						JOINT LeftForeArm
						{
							OFFSET 28.739309 0.000004 -0.002588
							CHANNELS 3 Zrotation Yrotation Xrotation
							JOINT LeftHand
							{
								OFFSET 27.093983 -0.000004 0.002610
								CHANNELS 3 Zrotation Yrotation Xrotation
								JOINT LeftHandThumb1
								{
									OFFSET 2.276480 -1.392046 3.191413
									CHANNELS 3 Zrotation Yrotation Xrotation
									JOINT LeftHandThumb2
									{
										OFFSET 4.012842 -1.828126 1.641655
										CHANNELS 3 Zrotation Yrotation Xrotation
										JOINT LeftHandThumb3
										{
											OFFSET 2.798517 0.000001 -0.000003
											CHANNELS 3 Zrotation Yrotation Xrotation
											JOINT LeftHandThumbEnd
											{
												OFFSET 3.180791 -0.000002 0.000003
												CHANNELS 3 Zrotation Yrotation Xrotation
												End Site
												{
													OFFSET 0.000000 0.000000 0.000000
												}
											}
										}
									}
								}
								JOINT LeftHandIndex1
								{
									OFFSET 3.247554 -0.531998 2.296169
									CHANNELS 3 Zrotation Yrotation Xrotation
									JOINT LeftHandIndex2
									{
										OFFSET 6.364579 0.012061 0.178600
										CHANNELS 3 Zrotation Yrotation Xrotation
										JOINT LeftHandIndex3
										{
											OFFSET 3.662366 0.000000 0.000000
											CHANNELS 3 Zrotation Yrotation Xrotation
											JOINT LeftHandIndex4
											{
												OFFSET 2.329243 0.000003 0.000003
												CHANNELS 3 Zrotation Yrotation Xrotation
												JOINT LeftHandIndexEnd
												{
													OFFSET 2.759619 -0.180538 -0.113024
													CHANNELS 3 Zrotation Yrotation Xrotation
													End Site
													{
														OFFSET 0.000000 0.000000 0.000000
													}
												}
											}
										}
									}
								}
								JOINT LeftHandMiddle1
								{
									OFFSET 3.163498 0.240982 1.000332
									CHANNELS 3 Zrotation Yrotation Xrotation
									JOINT LeftHandMiddle2
									{
										OFFSET 6.190779 -0.259275 -1.002548
										CHANNELS 3 Zrotation Yrotation Xrotation
										JOINT LeftHandMiddle3
										{
											OFFSET 4.356522 -0.000006 0.000000
											CHANNELS 3 Zrotation Yrotation Xrotation
											JOINT LeftHandMiddle4
											{
												OFFSET 2.996875 -0.000007 0.000001
												CHANNELS 3 Zrotation Yrotation Xrotation
												JOINT LeftHandMiddleEnd
												{
													OFFSET 2.304294 -0.294571 -0.031740
													CHANNELS 3 Zrotation Yrotation Xrotation
													End Site
													{
														OFFSET 0.000000 0.000000 0.000000
													}
												}
											}
										}
									}
								}
								JOINT LeftHandRing1
								{
									OFFSET 2.882642 -0.053650 -0.322543
									CHANNELS 3 Zrotation Yrotation Xrotation
									JOINT LeftHandRing2
									{
										OFFSET 5.854542 -0.486203 -1.373841
										CHANNELS 3 Zrotation Yrotation Xrotation
										JOINT LeftHandRing3
										{
											OFFSET 4.350581 0.000000 0.000004
											CHANNELS 3 Zrotation Yrotation Xrotation
											JOINT LeftHandRing4
											{
												OFFSET 2.651325 0.000008 0.000004
												CHANNELS 3 Zrotation Yrotation Xrotation
												JOINT LeftHandRingEnd
												{
													OFFSET 1.936111 0.077685 -0.000070
													CHANNELS 3 Zrotation Yrotation Xrotation
													End Site
													{
														OFFSET 0.000000 0.000000 0.000000
													}
												}
											}
										}
									}
								}
								JOINT LeftHandPinky1
								{
									OFFSET 2.865500 -0.310004 -1.600378
									CHANNELS 3 Zrotation Yrotation Xrotation
									JOINT LeftHandPinky2
									{
										OFFSET 5.087853 -1.331141 -1.771231
										CHANNELS 3 Zrotation Yrotation Xrotation
										JOINT LeftHandPinky3
										{
											OFFSET 3.070974 0.000003 0.000000
											CHANNELS 3 Zrotation Yrotation Xrotation
											JOINT LeftHandPinky4
											{
												OFFSET 1.549668 -0.000001 0.000001
												CHANNELS 3 Zrotation Yrotation Xrotation
												JOINT LeftHandPinkyEnd
												{
													OFFSET 1.944894 -0.157802 0.057218
													CHANNELS 3 Zrotation Yrotation Xrotation
													End Site
													{
														OFFSET 0.000000 0.000000 0.000000
													}
												}
											}
										}
									}
								}
							}
						}
					}
				}
				JOINT RightShoulder
				{
					OFFSET -1.380118 23.180307 5.214157
					CHANNELS 3 Zrotation Yrotation Xrotation
					JOINT RightArm
					{
						OFFSET -15.037197 0.000012 -5.545604
						CHANNELS 3 Zrotation Yrotation Xrotation
						JOINT RightForeArm
						{
							OFFSET -28.736639 0.000002 -0.002597
							CHANNELS 3 Zrotation Yrotation Xrotation
							JOINT RightHand
							{
								OFFSET -27.133617 0.000000 0.002613
								CHANNELS 3 Zrotation Yrotation Xrotation
								JOINT RightHandThumb1
								{
									OFFSET -2.274036 -1.383991 3.163127
									CHANNELS 3 Zrotation Yrotation Xrotation
									JOINT RightHandThumb2
									{
										OFFSET -4.011431 -1.827468 1.640914
										CHANNELS 3 Zrotation Yrotation Xrotation
										JOINT RightHandThumb3
										{
											OFFSET -2.794934 -0.000004 -0.000003
											CHANNELS 3 Zrotation Yrotation Xrotation
											JOINT RightHandThumbEnd
											{
												OFFSET -3.183854 0.000003 -0.000000
												CHANNELS 3 Zrotation Yrotation Xrotation
												End Site
												{
													OFFSET 0.000000 0.000000 0.000000
												}
											}
										}
									}
								}
								JOINT RightHandIndex1
								{
									OFFSET -3.253270 -0.520060 2.282866
									CHANNELS 3 Zrotation Yrotation Xrotation
									JOINT RightHandIndex2
									{
										OFFSET -6.341918 0.012473 0.178265
										CHANNELS 3 Zrotation Yrotation Xrotation
										JOINT RightHandIndex3
										{
											OFFSET -3.654875 -0.000009 -0.000001
											CHANNELS 3 Zrotation Yrotation Xrotation
											JOINT RightHandIndex4
											{
												OFFSET -2.327586 -0.000001 0.000001
												CHANNELS 3 Zrotation Yrotation Xrotation
												JOINT RightHandIndexEnd
												{
													OFFSET -2.761789 -0.180656 -0.113078
													CHANNELS 3 Zrotation Yrotation Xrotation
													End Site
													{
														OFFSET 0.000000 0.000000 0.000000
													}
												}
											}
										}
									}
								}
								JOINT RightHandMiddle1
								{
									OFFSET -3.168106 0.246593 1.001030
									CHANNELS 3 Zrotation Yrotation Xrotation
									JOINT RightHandMiddle2
									{
										OFFSET -6.180829 -0.258836 -1.000896
										CHANNELS 3 Zrotation Yrotation Xrotation
										JOINT RightHandMiddle3
										{
											OFFSET -4.348907 0.000000 -0.000001
											CHANNELS 3 Zrotation Yrotation Xrotation
											JOINT RightHandMiddle4
											{
												OFFSET -3.000242 -0.000005 -0.000002
												CHANNELS 3 Zrotation Yrotation Xrotation
												JOINT RightHandMiddleEnd
												{
													OFFSET -2.302518 -0.294370 -0.031706
													CHANNELS 3 Zrotation Yrotation Xrotation
													End Site
													{
														OFFSET 0.000000 0.000000 0.000000
													}
												}
											}
										}
									}
								}
								JOINT RightHandRing1
								{
									OFFSET -2.885695 -0.067952 -0.308858
									CHANNELS 3 Zrotation Yrotation Xrotation
									JOINT RightHandRing2
									{
										OFFSET -5.854197 -0.486132 -1.373732
										CHANNELS 3 Zrotation Yrotation Xrotation
										JOINT RightHandRing3
										{
											OFFSET -4.338814 -0.000004 -0.000000
											CHANNELS 3 Zrotation Yrotation Xrotation
											JOINT RightHandRing4
											{
												OFFSET -2.654906 -0.000003 0.000004
												CHANNELS 3 Zrotation Yrotation Xrotation
												JOINT RightHandRingEnd
												{
													OFFSET -1.933570 0.077522 -0.000053
													CHANNELS 3 Zrotation Yrotation Xrotation
													End Site
													{
														OFFSET 0.000000 0.000000 0.000000
													}
												}
											}
										}
									}
								}
								JOINT RightHandPinky1
								{
									OFFSET -2.866430 -0.342799 -1.584145
									CHANNELS 3 Zrotation Yrotation Xrotation
									JOINT RightHandPinky2
									{
										OFFSET -5.091371 -1.332054 -1.772385
										CHANNELS 3 Zrotation Yrotation Xrotation
										JOINT RightHandPinky3
										{
											OFFSET -3.062666 -0.000006 0.000000
											CHANNELS 3 Zrotation Yrotation Xrotation
											JOINT RightHandPinky4
											{
												OFFSET -1.546527 0.000005 -0.000002
												CHANNELS 3 Zrotation Yrotation Xrotation
												JOINT RightHandPinkyEnd
												{
													OFFSET -1.945122 -0.157721 0.057211
													CHANNELS 3 Zrotation Yrotation Xrotation
													End Site
													{
														OFFSET 0.000000 0.000000 0.000000
													}
												}
											}
										}
									}
								}
							}
						}
					}
				}
			}
		}
	}
	JOINT LeftLeg
	{
		OFFSET 10.043214 -8.434525 2.595655
		CHANNELS 3 Zrotation Yrotation Xrotation
		JOINT LeftShin
		{
			OFFSET -0.000001 -43.221752 -0.802913
			CHANNELS 3 Zrotation Yrotation Xrotation
			JOINT LeftFoot
			{
				OFFSET 0.000002 -42.155094 -3.481523
				CHANNELS 3 Zrotation Yrotation Xrotation
				JOINT LeftToeBase
				{
					OFFSET -0.000000 -5.059474 13.231529
					CHANNELS 3 Zrotation Yrotation Xrotation
					JOINT LeftToeEnd
					{
						OFFSET -0.009607 -1.647616 6.513017
						CHANNELS 3 Zrotation Yrotation Xrotation
						End Site
						{
							OFFSET 0.000000 0.000000 0.000000
						}
					}
				}
			}
		}
	}
	JOINT RightLeg
	{
		OFFSET -10.047278 -8.295259 2.620317
		CHANNELS 3 Zrotation Yrotation Xrotation
		JOINT RightShin
		{
			OFFSET 0.000001 -43.362209 -0.805556
			CHANNELS 3 Zrotation Yrotation Xrotation
			JOINT RightFoot
			{
				OFFSET 0.000003 -42.117393 -3.478399
				CHANNELS 3 Zrotation Yrotation Xrotation
				JOINT RightToeBase
				{
					OFFSET -0.000001 -5.079609 13.284196
					CHANNELS 3 Zrotation Yrotation Xrotation
					JOINT RightToeEnd
					{
						OFFSET 0.009532 -1.634383 6.460591
						CHANNELS 3 Zrotation Yrotation Xrotation
						End Site
						{
							OFFSET 0.000000 0.000000 0.000000
						}
					}
				}
			}
		}
	}
}
MOTION
Frames: 5
Frame Time: 0.033333
-5.287008 96.023201 -0.917612 -1.993534 0.287895 1.615687 -0.764395 -0.199188 0.938706 -0.899529 -1.040794 -4.044187 -0.321459 -3.019770 12.991663 -2.338954 4.767842 9.564170 1.801987 8.597869 -3.448413 -1.986403 9.749028 -10.359516 0.000077 -0.000023 0.000006 0.011727 -0.143307 -0.053393 0.766578 -3.883274 -10.726272 -0.752465 3.600603 -10.657643 5.163268 -12.836062 6.536664 -16.864740 -39.310108 -59.749828 -179.934540 -64.021088 -179.733994 3.286922 -2.883459 2.140279 -5.882100 9.861280 0.702591 -10.936859 -0.360576 7.156197 -0.000000 8.774814 -0.000003 -16.370073 17.928972 6.196593 -1.844032 2.498503 -2.507277 -10.163589 4.678940 4.621104 -20.975992 -0.000002 0.000003 -21.226255 2.451692 -3.593994 -0.000000 -0.000006 -0.000000 -1.362681 2.240797 -0.746321 -21.334890 0.584909 3.008322 -13.821197 -0.000003 0.000003 -23.887131 -0.249077 -0.839480 -60.756805 2.735837 -1.491130 -0.294024 1.679686 0.833255 -14.218190 0.093214 1.300579 -34.212006 -0.287564 0.967172 -20.033180 0.964536 1.212843 0.000000 0.000001 -0.000000 -3.440385 0.788232 0.501654 -15.928167 -3.167307 2.999705 -6.338819 -0.000001 0.000002 -18.123415 3.648176 -4.905661 -0.000005 -0.000000 -0.000002 4.448478 4.357160 10.812313 69.961906 74.333000 22.466358 -179.304962 42.103710 -179.581390 -11.050047 2.826103 1.160830 2.243540 -5.255033 -3.180155 14.282873 -0.826594 6.952496 -0.000002 -12.690591 0.000002 15.898623 -18.099842 2.642936 1.665666 -1.955920 -2.878298 4.727793 -4.170583 4.993921 11.020510 0.000003 -0.000002 12.109032 -3.735711 -2.866778 -0.000001 0.000000 0.000000 1.291984 -1.928548 -1.498090 14.800109 0.567468 3.865604 14.242551 -1.341735 -6.660649 19.631937 0.143924 -0.648243 49.212944 -0.833677 -6.170727 0.353028 -1.511150 -0.031938 20.222767 3.684306 2.316628 18.787245 0.000002 0.000000 10.751610 -0.479868 1.397904 0.000001 -0.000000 0.000000 3.273804 0.305947 -0.580110 21.486792 11.830362 2.266131 8.162914 0.000001 -0.000001 18.399048 -3.798979 -4.940568 0.000003 -0.000001 -0.000001 9.293538 11.109400 -27.159584 -0.098152 -0.424049 29.812210 -9.921247 -5.697106 -2.681714 1.622704 -1.848678 0.017493 0.000000 -0.000000 0.000002 -7.133501 -4.728079 -8.634710 0.115134 0.351849 25.995932 11.954386 -1.128841 -18.100061 -1.434964 1.068752 -0.495343 0.000000 0.000000 -0.000001 
-5.348935 96.025826 -0.767459 -1.971304 0.063276 1.685194 -0.757278 -0.200135 0.865492 -0.861534 -1.085240 -4.078002 -0.300014 -3.016000 13.046675 -2.470396 4.718439 9.453371 1.818658 8.712931 -3.446051 -2.179280 9.901238 -10.263108 0.000077 -0.000022 0.000006 0.016874 -0.129631 -0.059665 0.765500 -3.866835 -10.728186 -0.738657 3.609187 -10.673428 5.171163 -12.778241 6.339752 -16.973663 -39.094193 -59.655750 -179.928909 -64.192009 -179.937225 3.245600 -3.185798 1.907702 -5.882100 9.861278 0.702592 -10.936859 -0.360575 7.156198 -0.000001 8.774813 -0.000000 -16.403112 17.850113 6.156278 -1.844031 2.498502 -2.507275 -10.163590 4.678941 4.621104 -20.975994 -0.000002 0.000002 -21.226254 2.451695 -3.593994 -0.000000 -0.000005 -0.000000 -1.362680 2.240796 -0.746322 -21.334887 0.584910 3.008321 -13.821197 -0.000002 0.000001 -23.887129 -0.249077 -0.839482 -60.708282 2.598008 -1.392637 -0.294024 1.679686 0.833255 -14.218194 0.093215 1.300579 -34.211998 -0.287562 0.967169 -20.033178 0.964537 1.212841 0.000000 0.000001 0.000000 -3.440385 0.788232 0.501654 -15.928167 -3.167306 2.999705 -6.338817 0.000000 0.000002 -18.123413 3.648178 -4.905660 -0.000005 -0.000000 -0.000001 4.421322 4.389517 10.879840 69.690163 74.705208 22.347397 -179.229446 42.156784 -179.518402 -10.809209 2.860216 0.673237 2.243539 -5.255033 -3.180154 14.282878 -0.826595 6.952496 -0.000001 -12.690591 0.000002 15.810239 -18.057741 2.668872 1.665665 -1.955919 -2.878298 4.727795 -4.170584 4.993917 11.020511 0.000004 -0.000002 12.109031 -3.735710 -2.866780 -0.000001 0.000000 0.000000 1.291984 -1.928548 -1.498087 14.800113 0.567466 3.865603 14.242551 -1.341734 -6.660648 19.631937 0.143926 -0.648244 49.128830 -0.835382 -6.179065 0.353030 -1.511150 -0.031938 20.222769 3.684305 2.316628 18.787245 0.000004 0.000000 10.751612 -0.479870 1.397903 0.000000 -0.000001 0.000000 3.273804 0.305945 -0.580108 21.486790 11.830364 2.266129 8.162916 0.000002 -0.000001 18.399052 -3.798980 -4.940569 0.000003 -0.000001 -0.000001 9.394094 11.029584 -27.072863 -0.104881 -0.398725 29.855312 -9.997832 -5.422240 -2.871704 1.623780 -1.866640 -0.005626 0.000000 -0.000000 0.000002 -7.108186 -4.534474 -8.658875 0.093480 0.342808 25.989975 11.911667 -1.170935 -18.166758 -1.436990 1.032007 -0.650975 0.000000 0.000000 -0.000001 
-5.346655 96.007797 -0.554378 -1.923958 -0.103048 1.741796 -0.761014 -0.184401 0.803193 -0.845080 -1.147261 -4.122458 -0.279302 -2.988589 13.102396 -2.552714 4.678302 9.418531 1.836058 8.813201 -3.458914 -2.357277 9.985601 -10.167088 0.000077 -0.000023 0.000006 0.023849 -0.138111 -0.056607 0.763050 -3.877209 -10.741333 -0.723914 3.601117 -10.692422 5.240317 -12.796589 6.198485 -17.106936 -38.913525 -59.613033 -179.752274 -64.397141 179.825897 3.194286 -3.467775 1.735095 -5.882099 9.861277 0.702591 -10.936858 -0.360575 7.156196 -0.000000 8.774813 -0.000001 -16.359873 17.800030 6.165437 -1.844032 2.498502 -2.507277 -10.163591 4.678939 4.621105 -20.975992 -0.000003 0.000003 -21.226254 2.451693 -3.593993 0.000000 -0.000006 -0.000000 -1.362680 2.240798 -0.746322 -21.334887 0.584908 3.008321 -13.821197 -0.000002 0.000002 -23.887131 -0.249078 -0.839480 -60.677715 2.561072 -1.326759 -0.294023 1.679686 0.833255 -14.218190 0.093215 1.300580 -34.211998 -0.287562 0.967171 -20.033180 0.964537 1.212842 -0.000000 0.000000 0.000000 -3.440385 0.788233 0.501656 -15.928165 -3.167306 2.999704 -6.338818 -0.000002 0.000003 -18.123413 3.648176 -4.905661 -0.000004 -0.000000 -0.000002 4.407249 4.335248 10.868536 69.590515 74.995537 22.252281 -179.217590 42.362282 -179.477097 -10.583300 3.007459 0.172970 2.243540 -5.255033 -3.180155 14.282877 -0.826595 6.952497 -0.000002 -12.690590 0.000000 15.684675 -18.030243 2.708317 1.665664 -1.955919 -2.878297 4.727795 -4.170583 4.993918 11.020510 0.000003 -0.000001 12.109030 -3.735712 -2.866779 -0.000001 0.000000 0.000000 1.291983 -1.928547 -1.498088 14.800111 0.567468 3.865603 14.242553 -1.341736 -6.660647 19.631939 0.143924 -0.648244 49.010071 -0.839809 -6.209028 0.353029 -1.511149 -0.031940 20.222769 3.684306 2.316629 18.787245 0.000003 0.000001 10.751610 -0.479867 1.397903 0.000000 -0.000002 -0.000000 3.273805 0.305946 -0.580109 21.486794 11.830360 2.266131 8.162919 0.000001 0.000000 18.399054 -3.798980 -4.940568 0.000003 -0.000002 -0.000001 9.416641 10.973026 -27.026297 -0.090589 -0.338097 30.053350 -10.078247 -5.267812 -3.154629 1.622047 -1.867318 0.009620 0.000000 -0.000000 0.000002 -7.178902 -4.442461 -8.614174 0.096554 0.337772 25.995407 11.818704 -1.109695 -18.273945 -1.436995 1.018526 -0.737115 0.000000 0.000000 -0.000001 
-5.235552 95.937492 -0.360823 -1.876422 -0.247204 1.796145 -0.753124 -0.163671 0.733951 -0.844313 -1.201311 -4.153308 -0.260112 -2.992082 13.130343 -2.654073 4.664525 9.453614 1.871424 8.856233 -3.455938 -2.501947 10.015854 -10.044291 0.000077 -0.000021 0.000006 0.029069 -0.149006 -0.050582 0.761443 -3.887697 -10.733280 -0.711273 3.596274 -10.691663 5.386837 -12.801563 6.074489 -17.347048 -38.778500 -59.475159 -179.454529 -64.581757 179.629044 3.140483 -3.753152 1.594124 -5.882103 9.861280 0.702588 -10.936861 -0.360574 7.156199 -0.000003 8.774813 -0.000002 -16.245005 17.773487 6.229610 -1.844030 2.498504 -2.507275 -10.163593 4.678939 4.621104 -20.975998 -0.000003 0.000003 -21.226255 2.451692 -3.593995 -0.000000 -0.000005 -0.000001 -1.362681 2.240797 -0.746323 -21.334896 0.584910 3.008319 -13.821197 -0.000002 0.000001 -23.887131 -0.249078 -0.839482 -60.611275 2.572057 -1.330325 -0.294026 1.679686 0.833254 -14.218192 0.093216 1.300579 -34.212013 -0.287565 0.967169 -20.033186 0.964533 1.212842 -0.000000 0.000001 -0.000000 -3.440385 0.788232 0.501656 -15.928167 -3.167306 2.999703 -6.338817 -0.000001 0.000001 -18.123415 3.648176 -4.905662 -0.000004 0.000001 -0.000002 4.351354 4.261196 10.778270 69.657524 75.088257 22.062656 -179.361740 42.526154 -179.566162 -10.370134 3.034088 -0.485156 2.243539 -5.255033 -3.180156 14.282878 -0.826592 6.952494 -0.000002 -12.690591 -0.000001 15.603737 -18.002699 2.728955 1.665666 -1.955920 -2.878298 4.727793 -4.170583 4.993917 11.020513 0.000004 -0.000001 12.109032 -3.735709 -2.866780 -0.000001 -0.000001 0.000000 1.291984 -1.928547 -1.498089 14.800111 0.567470 3.865602 14.242551 -1.341735 -6.660650 19.631939 0.143927 -0.648243 48.979317 -0.814889 -6.206717 0.353029 -1.511150 -0.031940 20.222771 3.684308 2.316628 18.787243 0.000006 -0.000000 10.751610 -0.479867 1.397904 -0.000001 -0.000000 -0.000000 3.273805 0.305947 -0.580110 21.486794 11.830364 2.266131 8.162916 0.000001 -0.000001 18.399048 -3.798976 -4.940567 0.000003 -0.000001 -0.000001 9.349416 10.949402 -27.153675 -0.078351 -0.292596 30.547800 -10.096872 -5.243524 -3.563518 1.619885 -1.860700 0.011016 0.000000 0.000000 0.000002 -7.329469 -4.383344 -8.665959 0.099102 0.339479 26.192059 11.826649 -1.056955 -18.460192 -1.435673 1.019010 -0.762308 0.000000 0.000000 -0.000001 
-5.142151 95.867508 -0.149276 -1.836199 -0.347118 1.857123 -0.746563 -0.142105 0.655853 -0.846166 -1.248714 -4.191099 -0.230690 -3.026111 13.161000 -2.769140 4.692917 9.562516 1.883119 8.849770 -3.449325 -2.617814 10.021398 -9.855136 0.000077 -0.000024 0.000006 0.027992 -0.148924 -0.048002 0.755986 -3.885777 -10.728560 -0.707792 3.598329 -10.687321 5.538722 -12.823266 5.996905 -17.564571 -38.640678 -59.341385 -179.099854 -64.725838 179.391251 2.994985 -3.974305 1.589818 -5.882100 9.861278 0.702589 -10.936858 -0.360576 7.156197 -0.000001 8.774812 -0.000002 -16.125959 17.746061 6.261269 -1.844032 2.498503 -2.507275 -10.163589 4.678940 4.621104 -20.975992 -0.000002 0.000001 -21.226248 2.451694 -3.593995 0.000000 -0.000005 -0.000001 -1.362680 2.240796 -0.746323 -21.334887 0.584908 3.008321 -13.821197 -0.000003 0.000003 -23.887129 -0.249079 -0.839480 -60.464260 2.583872 -1.365645 -0.294024 1.679686 0.833255 -14.218192 0.093214 1.300580 -34.211998 -0.287563 0.967170 -20.033176 0.964536 1.212841 -0.000000 0.000000 0.000000 -3.440385 0.788233 0.501655 -15.928165 -3.167306 2.999703 -6.338817 0.000001 0.000003 -18.123413 3.648175 -4.905662 -0.000005 -0.000000 -0.000002 4.310118 4.177906 10.686645 69.597893 75.096344 21.839996 -179.401825 42.639664 -179.604202 -10.113075 2.933015 -1.102064 2.243540 -5.255033 -3.180156 14.282875 -0.826594 6.952495 -0.000002 -12.690591 0.000001 15.576673 -17.967125 2.724925 1.665664 -1.955920 -2.878296 4.727795 -4.170585 4.993920 11.020510 0.000004 -0.000002 12.109030 -3.735712 -2.866779 0.000001 0.000000 0.000000 1.291983 -1.928547 -1.498088 14.800113 0.567467 3.865602 14.242551 -1.341736 -6.660647 19.631939 0.143926 -0.648244 48.910313 -0.796616 -6.198028 0.353028 -1.511150 -0.031940 20.222769 3.684304 2.316626 18.787245 0.000005 -0.000001 10.751610 -0.479869 1.397903 0.000000 -0.000001 0.000000 3.273805 0.305947 -0.580109 21.486790 11.830360 2.266131 8.162916 0.000000 -0.000001 18.399054 -3.798980 -4.940569 0.000003 -0.000003 -0.000001 9.298211 10.926568 -27.283276 -0.081313 -0.254548 31.031260 -10.173932 -5.280843 -3.958432 1.620207 -1.855386 0.004652 0.000000 -0.000000 0.000002 -7.456820 -4.311409 -8.693594 0.106746 0.339403 26.371134 11.862634 -1.059090 -18.667839 -1.434219 1.023684 -0.786172 -0.000000 -0.000000 -0.000001 
